<svg version="1.1" id="Layer_1" xmlns="http://www.w3.org/2000/svg" xmlns:xlink="http://www.w3.org/1999/xlink" x="0px" y="0px"
	 width="100%" viewBox="0 0 1685 516" enable-background="new 0 0 1685 516" xml:space="preserve">
<path fill="#FFFFFF" opacity="1.000000" stroke="none" 
	d="
M1686.000000,259.000000 
	C1686.000000,344.991943 1686.000000,430.983887 1686.000000,516.981873 
	C1124.393921,516.987915 562.787964,516.987915 1.090970,516.987915 
	C1.090970,345.076782 1.090970,173.153534 1.090970,1.115129 
	C562.666626,1.115129 1124.333374,1.115129 1686.000000,1.113521 
	C1686.000000,86.437309 1686.000000,171.762711 1685.690918,257.416565 
	C1672.582153,245.992935 1659.756104,234.269379 1646.989990,222.480881 
	C1633.122559,209.675323 1619.267212,196.856064 1605.487915,183.955994 
	C1593.018799,172.282547 1580.670776,160.479706 1568.243408,148.761414 
	C1564.815186,145.528717 1561.114136,143.679199 1555.959473,143.852844 
	C1542.809204,144.295853 1529.595215,143.393005 1516.482788,144.225342 
	C1508.456177,144.734863 1503.108887,141.455902 1497.843262,136.404007 
	C1485.999023,125.040352 1474.012451,113.824684 1462.063599,102.570160 
	C1457.241089,98.027863 1452.396484,93.507904 1447.503052,89.042160 
	C1444.446533,86.252914 1441.280273,83.583939 1438.163330,80.861015 
	C1438.379150,80.491951 1438.595093,80.122879 1438.810913,79.753815 
	C1456.675781,79.753815 1474.540527,79.753815 1493.710815,79.753815 
	C1484.356445,71.274223 1475.836548,63.729279 1467.517822,55.968441 
	C1455.028564,44.316681 1442.652222,32.543247 1430.286499,20.760040 
	C1425.364136,16.069515 1420.213379,13.290533 1412.809448,13.788779 
	C1401.030640,14.581435 1389.159546,14.000459 1377.327393,14.000459 
	C1373.423340,14.000459 1369.519287,14.000458 1364.360107,14.000458 
	C1388.126709,36.027885 1410.921387,57.154541 1434.492065,79.000435 
	C1416.868652,79.000435 1400.548096,78.878059 1384.231812,79.087708 
	C1380.224365,79.139198 1377.326538,77.637375 1374.589600,75.094727 
	C1365.736450,66.869698 1356.803833,58.729916 1347.985229,50.468216 
	C1336.006592,39.246071 1324.168335,27.872957 1312.094971,16.754553 
	C1310.480591,15.267790 1307.853271,14.146452 1305.678955,14.118741 
	C1288.849976,13.904260 1272.017212,13.995158 1255.185547,14.011560 
	C1253.971313,14.012743 1252.757324,14.172302 1250.537476,14.329392 
	C1258.769775,21.749203 1266.315552,28.402557 1273.696533,35.233948 
	C1288.649292,49.073341 1303.449951,63.078121 1318.494263,76.816437 
	C1320.337036,78.499313 1323.274536,79.821465 1325.728394,79.861488 
	C1342.055786,80.127808 1358.390259,79.933380 1374.720459,80.087677 
	C1376.648682,80.105896 1379.031860,80.821449 1380.413574,82.081032 
	C1391.189087,91.903564 1401.724365,101.988831 1412.430908,111.887978 
	C1418.369385,117.378532 1424.825684,122.346588 1430.437012,128.142242 
	C1435.571411,133.445267 1439.883179,139.544846 1443.583496,144.095612 
	C1428.311523,144.095612 1410.312134,144.095612 1392.312744,144.095612 
	C1392.130127,144.482285 1391.947388,144.868973 1391.764771,145.255646 
	C1393.805420,146.964584 1395.924683,148.588760 1397.874390,150.395966 
	C1412.206177,163.680420 1426.536255,176.967285 1440.803101,190.321472 
	C1452.786865,201.538589 1464.634033,212.901978 1476.642700,224.092224 
	C1482.437256,229.491898 1488.592773,234.505951 1494.352539,239.940842 
	C1501.079956,246.288849 1507.553833,252.905502 1513.949707,259.649536 
	C1510.166870,263.569092 1506.572144,267.244751 1502.661621,270.964661 
	C1501.886230,271.329163 1501.426758,271.649414 1500.983643,271.984802 
	C1501.000000,272.000000 1500.967651,271.968994 1500.720459,272.035889 
	C1500.314941,272.389679 1500.156372,272.676575 1499.989990,272.972839 
	C1499.982178,272.982239 1499.963257,272.998199 1499.715576,273.054016 
	C1499.310303,273.394562 1499.152832,273.679260 1498.989746,273.974396 
	C1498.984375,273.984802 1498.963745,273.995453 1498.716064,274.052643 
	C1498.309814,274.394714 1498.151245,274.679596 1497.989746,274.975616 
	C1497.986694,274.986725 1497.964233,274.992920 1497.716309,275.051300 
	C1497.308960,275.394806 1497.149414,275.679962 1496.989990,275.977448 
	C1496.989990,275.989807 1496.964966,275.990173 1496.716675,276.049622 
	C1496.307373,276.394745 1496.146484,276.680359 1495.989258,276.979462 
	C1495.993042,276.992950 1495.965820,276.985718 1495.716919,277.046783 
	C1495.305054,277.394257 1495.142212,277.680634 1494.987427,277.981689 
	C1494.995605,277.996338 1494.966919,277.979431 1494.715942,278.043640 
	C1494.295044,278.395844 1494.125122,278.683868 1493.716797,279.041504 
	C1493.169678,279.300140 1493.006714,279.575378 1492.680420,280.054871 
	C1490.918213,281.516083 1489.464966,282.859253 1487.752441,284.152832 
	C1487.319336,284.390564 1487.145264,284.677979 1486.985596,284.982056 
	C1487.000000,284.998779 1486.966675,284.970734 1486.717041,285.035645 
	C1486.304321,285.389038 1486.141235,285.677521 1485.986572,285.981201 
	C1485.995117,285.996399 1485.965576,285.978485 1485.715576,286.040375 
	C1485.302124,286.390320 1485.138916,286.678345 1484.987793,286.982483 
	C1485.000000,286.998566 1484.966187,286.976044 1484.715820,287.038818 
	C1484.301147,287.390076 1484.136963,287.678528 1483.986328,287.982849 
	C1484.000000,287.998779 1483.966675,287.972992 1483.715820,288.036835 
	C1483.299683,288.389618 1483.134277,288.678528 1482.984375,288.983734 
	C1483.000000,289.000000 1482.967163,288.969421 1482.716064,289.034668 
	C1482.298462,289.389221 1482.131714,289.678558 1481.978516,289.981812 
	C1481.991943,289.995697 1481.960327,289.968536 1481.647217,290.085144 
	C1478.892334,292.537842 1476.450439,294.873871 1473.753906,297.164246 
	C1473.326660,297.399628 1473.154053,297.680695 1472.988037,297.977417 
	C1472.994629,297.993042 1472.962891,297.980469 1472.713135,298.041687 
	C1472.299683,298.390137 1472.135864,298.677368 1471.985962,298.981689 
	C1472.000000,298.998779 1471.964233,298.972229 1471.714355,299.036560 
	C1471.299194,299.388977 1471.134033,299.677063 1470.981934,299.982727 
	C1470.995117,300.000305 1470.958984,299.973633 1470.645508,300.088867 
	C1467.208740,303.435455 1464.085327,306.666809 1460.619141,309.944641 
	C1458.500732,311.623993 1456.725342,313.256805 1454.639526,315.021271 
	C1451.551025,317.830841 1448.772949,320.508759 1445.736572,323.150146 
	C1445.297119,323.395996 1445.115845,323.678436 1444.966064,323.979980 
	C1444.997314,323.999115 1444.952881,323.940826 1444.641113,324.063019 
	C1441.537720,327.088257 1438.745972,329.991302 1435.642822,333.030701 
	C1433.206421,335.073700 1431.081299,336.980316 1428.660156,339.010437 
	C1427.229736,340.382965 1426.095459,341.632019 1424.653076,343.016907 
	C1422.216187,345.064484 1420.087158,346.976196 1417.662109,349.012787 
	C1416.228516,350.388702 1415.090942,351.639740 1413.644897,353.026001 
	C1410.565186,355.833038 1407.793945,358.504852 1404.688477,361.193054 
	C1400.887207,364.769653 1397.420166,368.329895 1393.639526,372.030029 
	C1387.182129,377.647064 1380.963135,383.042694 1374.909302,388.617737 
	C1361.051880,401.379425 1347.236694,414.187988 1333.476807,427.054840 
	C1321.385986,438.360962 1309.403564,449.782776 1297.353271,461.132324 
	C1292.177124,466.007568 1286.980591,470.862091 1281.740479,475.668427 
	C1271.630005,484.942017 1261.481934,494.174652 1251.152710,503.603943 
	C1251.830688,503.843811 1251.971436,503.937164 1252.112061,503.937225 
	C1308.396118,503.962189 1364.680054,504.002350 1420.963867,503.895081 
	C1422.645630,503.891846 1424.645508,502.683533 1425.952881,501.457062 
	C1434.659302,493.290161 1443.174805,484.920135 1451.836060,476.704559 
	C1460.208862,468.762817 1468.682251,460.927246 1477.417358,452.910950 
	C1481.185913,449.531219 1484.648438,446.285614 1488.415527,442.910278 
	C1491.842285,439.863922 1494.964600,436.947296 1498.375366,433.917236 
	C1499.474365,432.882751 1500.284790,431.961700 1501.402954,430.909119 
	C1503.513794,428.531952 1505.316650,426.286346 1507.419678,423.917114 
	C1508.846924,422.877167 1509.974121,421.960846 1511.445312,421.009369 
	C1514.559814,418.326874 1517.330322,415.679565 1520.406006,412.903381 
	C1523.135254,410.533539 1525.559204,408.292572 1528.010742,406.048462 
	C1528.038086,406.045288 1528.052368,405.992065 1528.298706,405.938110 
	C1528.708008,405.602753 1528.870972,405.321320 1529.018311,405.019958 
	C1529.002808,405.000000 1529.042114,405.032745 1529.290405,404.965881 
	C1529.626099,404.602173 1529.713501,404.305328 1529.941162,403.707520 
	C1531.447876,401.965820 1532.814697,400.525146 1534.525635,399.064301 
	C1549.587158,385.562469 1564.330200,372.108734 1579.012817,358.589203 
	C1588.733032,349.639160 1598.389038,340.619202 1608.032959,331.586945 
	C1624.317749,316.334595 1640.535522,301.010315 1656.849609,285.789429 
	C1666.498657,276.787048 1676.278809,267.925110 1686.000000,259.000000 
M1327.168945,230.517288 
	C1327.168945,230.517288 1327.539917,230.827652 1327.539917,230.827652 
	C1327.539917,230.827652 1328.018188,230.753891 1328.605469,231.073074 
	C1330.064941,232.409332 1331.524414,233.745605 1333.231689,235.691071 
	C1335.473633,237.794525 1337.715576,239.897980 1339.981201,242.025085 
	C1339.981201,242.025085 1340.005615,242.044876 1340.120239,242.536438 
	C1340.411011,242.617691 1340.701660,242.698944 1341.586670,243.063171 
	C1342.715942,244.070923 1343.845215,245.078659 1345.242432,246.688843 
	C1347.489624,248.807556 1349.736694,250.926270 1352.203735,253.685150 
	C1354.152710,255.391663 1356.101807,257.098175 1357.433960,259.111053 
	C1347.967407,267.894104 1338.499146,276.675507 1329.034546,285.460693 
	C1319.691895,294.132599 1310.354492,302.810120 1301.011841,311.482147 
	C1287.181030,324.320099 1273.304321,337.108917 1259.528320,350.005524 
	C1247.062256,361.675964 1234.756714,373.518036 1222.276978,385.173767 
	C1216.490234,390.578461 1210.380005,395.635925 1204.557983,401.004303 
	C1198.415894,406.667877 1192.442505,412.514496 1186.242065,418.427368 
	C1186.983765,418.745605 1187.256226,418.964874 1187.528931,418.965057 
	C1223.682495,418.986816 1259.836060,419.008209 1295.989502,418.936798 
	C1297.320312,418.934174 1298.953247,418.353516 1299.931641,417.472076 
	C1308.411377,409.831970 1316.764893,402.051849 1325.172974,394.332001 
	C1332.968506,387.174652 1340.818726,380.076416 1348.585083,372.887848 
	C1362.800659,359.729950 1377.006958,346.561768 1391.151367,333.327728 
	C1403.134521,322.116058 1415.015381,310.795319 1426.961060,299.543610 
	C1431.903687,294.888153 1436.866333,290.253174 1441.873779,285.667755 
	C1451.266968,277.066254 1460.699341,268.507751 1470.438354,259.637299 
	C1465.088989,254.700119 1460.149292,250.200653 1455.276733,245.629471 
	C1448.387329,239.166168 1441.533081,232.665207 1434.690674,226.152054 
	C1427.429688,219.240524 1420.264160,212.227448 1412.939697,205.384308 
	C1405.098145,198.058228 1397.176147,190.815796 1389.182251,183.656296 
	C1383.577881,178.636841 1377.794189,173.817596 1371.836670,168.348022 
	C1370.927002,167.552902 1370.017212,166.757782 1368.980713,165.273468 
	C1366.023682,162.504395 1363.066528,159.735306 1359.842529,156.343445 
	C1357.266357,154.213470 1354.690308,152.083511 1352.006470,149.258087 
	C1349.373169,146.822433 1346.739868,144.386795 1343.737793,141.226227 
	C1339.825928,140.873062 1335.914062,140.519897 1331.078369,140.020996 
	C1326.053101,140.069519 1321.027710,140.118042 1315.111938,140.021896 
	C1311.667603,139.433884 1307.192261,140.025772 1304.947998,138.064529 
	C1291.277710,126.118599 1278.167358,113.534050 1264.708618,101.340874 
	C1263.211060,99.984276 1260.698364,99.112778 1258.648804,99.098495 
	C1236.181274,98.941772 1213.712402,99.000183 1191.243774,99.000175 
	C1189.673340,99.000175 1188.102905,99.000183 1185.437378,99.000183 
	C1216.534790,127.581276 1246.744385,155.346375 1277.217651,183.718674 
	C1280.151367,186.420578 1283.085083,189.122467 1286.624512,192.122787 
	C1288.734619,194.119873 1290.844727,196.116974 1293.213989,198.719925 
	C1295.489380,200.749161 1297.764771,202.778397 1300.639282,205.125000 
	C1303.080200,207.453918 1305.520996,209.782837 1308.219849,212.725647 
	C1311.135254,215.188736 1314.050659,217.651840 1317.216553,220.726593 
	C1320.131348,223.491348 1323.046143,226.256104 1325.992065,229.005371 
	C1325.992065,229.005371 1325.980225,229.034470 1326.104004,229.519897 
	C1326.385864,229.667404 1326.667725,229.814911 1326.965332,230.046570 
	C1326.965332,230.046570 1327.050903,230.048996 1327.168945,230.517288 
z"/>
<path fill="#3BB3C2" opacity="1.000000" stroke="none" 
	d="
M1514.137695,259.405609 
	C1507.553833,252.905502 1501.079956,246.288849 1494.352539,239.940842 
	C1488.592773,234.505951 1482.437256,229.491898 1476.642700,224.092224 
	C1464.634033,212.901978 1452.786865,201.538589 1440.803101,190.321472 
	C1426.536255,176.967285 1412.206177,163.680420 1397.874390,150.395966 
	C1395.924683,148.588760 1393.805420,146.964584 1391.764771,145.255646 
	C1391.947388,144.868973 1392.130127,144.482285 1392.312744,144.095612 
	C1410.312134,144.095612 1428.311523,144.095612 1443.583496,144.095612 
	C1439.883179,139.544846 1435.571411,133.445267 1430.437012,128.142242 
	C1424.825684,122.346588 1418.369385,117.378532 1412.430908,111.887978 
	C1401.724365,101.988831 1391.189087,91.903564 1380.413574,82.081032 
	C1379.031860,80.821449 1376.648682,80.105896 1374.720459,80.087677 
	C1358.390259,79.933380 1342.055786,80.127808 1325.728394,79.861488 
	C1323.274536,79.821465 1320.337036,78.499313 1318.494263,76.816437 
	C1303.449951,63.078121 1288.649292,49.073341 1273.696533,35.233948 
	C1266.315552,28.402557 1258.769775,21.749203 1250.537476,14.329392 
	C1252.757324,14.172302 1253.971313,14.012743 1255.185547,14.011560 
	C1272.017212,13.995158 1288.849976,13.904260 1305.678955,14.118741 
	C1307.853271,14.146452 1310.480591,15.267790 1312.094971,16.754553 
	C1324.168335,27.872957 1336.006592,39.246071 1347.985229,50.468216 
	C1356.803833,58.729916 1365.736450,66.869698 1374.589600,75.094727 
	C1377.326538,77.637375 1380.224365,79.139198 1384.231812,79.087708 
	C1400.548096,78.878059 1416.868652,79.000435 1434.492065,79.000435 
	C1410.921387,57.154541 1388.126709,36.027885 1364.360107,14.000458 
	C1369.519287,14.000458 1373.423340,14.000459 1377.327393,14.000459 
	C1389.159546,14.000459 1401.030640,14.581435 1412.809448,13.788779 
	C1420.213379,13.290533 1425.364136,16.069515 1430.286499,20.760040 
	C1442.652222,32.543247 1455.028564,44.316681 1467.517822,55.968441 
	C1475.836548,63.729279 1484.356445,71.274223 1493.710815,79.753815 
	C1474.540527,79.753815 1456.675781,79.753815 1438.810913,79.753815 
	C1438.595093,80.122879 1438.379150,80.491951 1438.163330,80.861015 
	C1441.280273,83.583939 1444.446533,86.252914 1447.503052,89.042160 
	C1452.396484,93.507904 1457.241089,98.027863 1462.063599,102.570160 
	C1474.012451,113.824684 1485.999023,125.040352 1497.843262,136.404007 
	C1503.108887,141.455902 1508.456177,144.734863 1516.482788,144.225342 
	C1529.595215,143.393005 1542.809204,144.295853 1555.959473,143.852844 
	C1561.114136,143.679199 1564.815186,145.528717 1568.243408,148.761414 
	C1580.670776,160.479706 1593.018799,172.282547 1605.487915,183.955994 
	C1619.267212,196.856064 1633.122559,209.675323 1646.989990,222.480881 
	C1659.756104,234.269379 1672.582153,245.992935 1685.690918,257.872528 
	C1686.000000,258.000000 1686.000000,258.500000 1686.000000,258.750000 
	C1676.278809,267.925110 1666.498657,276.787048 1656.849609,285.789429 
	C1640.535522,301.010315 1624.317749,316.334595 1608.032959,331.586945 
	C1598.389038,340.619202 1588.733032,349.639160 1579.012817,358.589203 
	C1564.330200,372.108734 1549.587158,385.562469 1534.532471,398.717041 
	C1534.514038,397.281250 1534.832642,396.172546 1535.448364,394.908752 
	C1537.182251,392.203888 1538.619019,389.654114 1540.337646,386.898743 
	C1542.402466,382.127472 1544.185303,377.561737 1546.020752,372.620300 
	C1547.270508,367.153290 1548.467651,362.062042 1549.773560,356.514618 
	C1549.879883,349.366821 1549.877319,342.675201 1549.943604,335.552490 
	C1548.697266,327.740723 1547.382202,320.360077 1546.058838,312.580261 
	C1541.034302,292.811249 1531.713257,275.820679 1517.825439,261.394653 
	C1516.902954,260.436340 1515.380859,260.055237 1514.137695,259.405609 
M1478.487915,170.991196 
	C1490.406128,182.240875 1502.304565,193.511780 1514.254272,204.727997 
	C1518.173950,208.407196 1522.417725,210.446762 1528.303101,210.180649 
	C1541.255371,209.594940 1554.252075,209.990295 1567.230591,209.985596 
	C1569.608154,209.984741 1571.985596,209.985474 1574.363159,209.985474 
	C1565.695679,200.678894 1556.597412,192.567673 1547.676025,184.266327 
	C1536.288086,173.669830 1525.002686,162.961945 1513.754395,152.216995 
	C1508.750366,147.436905 1503.628662,144.349731 1495.998047,144.782639 
	C1482.397705,145.554230 1468.722168,144.991058 1455.078003,145.014481 
	C1453.882080,145.016541 1452.686401,145.228134 1450.602539,145.427231 
	C1460.193970,154.203430 1469.090332,162.343582 1478.487915,170.991196 
z"/>
<path fill="#3BB3C2" opacity="1.000000" stroke="none" 
	d="
M1372.090576,168.908905 
	C1377.794189,173.817596 1383.577881,178.636841 1389.182251,183.656296 
	C1397.176147,190.815796 1405.098145,198.058228 1412.939697,205.384308 
	C1420.264160,212.227448 1427.429688,219.240524 1434.690674,226.152054 
	C1441.533081,232.665207 1448.387329,239.166168 1455.276733,245.629471 
	C1460.149292,250.200653 1465.088989,254.700119 1470.438354,259.637299 
	C1460.699341,268.507751 1451.266968,277.066254 1441.873779,285.667755 
	C1436.866333,290.253174 1431.903687,294.888153 1426.961060,299.543610 
	C1415.015381,310.795319 1403.134521,322.116058 1391.151367,333.327728 
	C1377.006958,346.561768 1362.800659,359.729950 1348.585083,372.887848 
	C1340.818726,380.076416 1332.968506,387.174652 1325.172974,394.332001 
	C1316.764893,402.051849 1308.411377,409.831970 1299.931641,417.472076 
	C1298.953247,418.353516 1297.320312,418.934174 1295.989502,418.936798 
	C1259.836060,419.008209 1223.682495,418.986816 1187.528931,418.965057 
	C1187.256226,418.964874 1186.983765,418.745605 1186.242065,418.427368 
	C1192.442505,412.514496 1198.415894,406.667877 1204.557983,401.004303 
	C1210.380005,395.635925 1216.490234,390.578461 1222.276978,385.173767 
	C1234.756714,373.518036 1247.062256,361.675964 1259.528320,350.005524 
	C1273.304321,337.108917 1287.181030,324.320099 1301.011841,311.482147 
	C1310.354492,302.810120 1319.691895,294.132599 1329.034546,285.460693 
	C1338.499146,276.675507 1347.967407,267.894104 1358.060059,258.888397 
	C1369.607544,249.563873 1374.592285,237.017685 1378.927734,223.623016 
	C1379.656128,218.161591 1380.245850,213.091537 1380.904541,207.632126 
	C1380.932007,204.166412 1380.890747,201.090042 1380.910645,197.586639 
	C1380.353149,193.432495 1379.734497,189.705399 1379.102905,185.598022 
	C1377.815308,182.436920 1376.540405,179.656113 1375.231567,176.507965 
	C1374.161865,173.730072 1373.126221,171.319489 1372.090576,168.908905 
z"/>
<path fill="#0093DD" opacity="1.000000" stroke="none" 
	d="
M1477.111328,453.045044 
	C1468.682251,460.927246 1460.208862,468.762817 1451.836060,476.704559 
	C1443.174805,484.920135 1434.659302,493.290161 1425.952881,501.457062 
	C1424.645508,502.683533 1422.645630,503.891846 1420.963867,503.895081 
	C1364.680054,504.002350 1308.396118,503.962189 1252.112061,503.937225 
	C1251.971436,503.937164 1251.830688,503.843811 1251.152710,503.603943 
	C1261.481934,494.174652 1271.630005,484.942017 1281.740479,475.668427 
	C1286.980591,470.862091 1292.177124,466.007568 1297.353271,461.132324 
	C1309.403564,449.782776 1321.385986,438.360962 1333.476807,427.054840 
	C1347.236694,414.187988 1361.051880,401.379425 1374.909302,388.617737 
	C1380.963135,383.042694 1387.182129,377.647064 1393.782349,372.339111 
	C1406.107544,384.120575 1417.974487,395.734924 1429.845825,407.344757 
	C1444.812012,421.981201 1459.778320,436.617371 1474.760986,451.237000 
	C1475.463501,451.922546 1476.324219,452.446075 1477.111328,453.045044 
z"/>
<path fill="#0093DD" opacity="1.000000" stroke="none" 
	d="
M1276.953979,183.111481 
	C1246.744385,155.346375 1216.534790,127.581276 1185.437378,99.000183 
	C1188.102905,99.000183 1189.673340,99.000175 1191.243774,99.000175 
	C1213.712402,99.000183 1236.181274,98.941772 1258.648804,99.098495 
	C1260.698364,99.112778 1263.211060,99.984276 1264.708618,101.340874 
	C1278.167358,113.534050 1291.277710,126.118599 1304.947998,138.064529 
	C1307.192261,140.025772 1311.667603,139.433884 1315.514038,140.429993 
	C1313.314941,144.021240 1310.888062,147.367935 1308.081299,150.358185 
	C1297.773804,161.340012 1287.340210,172.203476 1276.953979,183.111481 
z"/>
<path fill="#0287CE" opacity="1.000000" stroke="none" 
	d="
M1477.417358,452.910919 
	C1476.324219,452.446075 1475.463501,451.922546 1474.760986,451.237000 
	C1459.778320,436.617371 1444.812012,421.981201 1429.845825,407.344757 
	C1417.974487,395.734924 1406.107544,384.120575 1394.095825,372.199188 
	C1397.420166,368.329895 1400.887207,364.769653 1404.687744,361.546936 
	C1405.848267,363.256317 1406.441895,364.865753 1407.548584,365.953003 
	C1410.261108,368.617950 1413.331665,370.918335 1416.045166,373.582397 
	C1438.107910,395.242889 1460.105103,416.970215 1482.182251,438.615997 
	C1483.927124,440.326721 1486.124146,441.576233 1488.111084,443.040039 
	C1484.648438,446.285614 1481.185913,449.531219 1477.417358,452.910919 
z"/>
<path fill="#0B5A99" opacity="1.000000" stroke="none" 
	d="
M1535.151123,395.063873 
	C1534.832642,396.172546 1534.514038,397.281250 1534.188477,398.737183 
	C1532.814697,400.525146 1531.447876,401.965820 1529.756348,403.830017 
	C1529.207642,404.466309 1529.077881,404.726044 1529.042114,405.032745 
	C1529.042114,405.032745 1529.002808,405.000000 1528.793213,405.106323 
	C1528.297852,405.398285 1528.120728,405.658081 1528.052368,405.992065 
	C1528.052368,405.992065 1528.038086,406.045288 1527.648438,406.021515 
	C1525.870972,405.196686 1524.250610,404.636719 1523.130737,403.557495 
	C1510.796265,391.672180 1498.541260,379.704193 1486.261230,367.762238 
	C1474.339233,356.168549 1462.310303,344.681763 1450.573486,332.903778 
	C1448.146118,330.467987 1446.798340,326.956482 1444.952881,323.940796 
	C1444.952881,323.940826 1444.997314,323.999115 1445.184814,323.916443 
	C1445.654053,323.689636 1445.861572,323.473969 1445.994873,323.186707 
	C1448.772949,320.508759 1451.551025,317.830841 1454.779541,315.351013 
	C1456.555298,317.602386 1457.560059,319.979065 1459.254761,321.660187 
	C1483.124023,345.338898 1507.076782,368.933563 1531.060181,392.496979 
	C1532.181763,393.599030 1533.776733,394.219238 1535.151123,395.063873 
z"/>
<path fill="#113F7A" opacity="1.000000" stroke="none" 
	d="
M1549.664795,356.970795 
	C1548.467651,362.062042 1547.270508,367.153290 1545.658447,372.617523 
	C1541.007935,369.672089 1536.433350,366.703003 1532.593628,362.976624 
	C1512.812256,343.778137 1493.195679,324.409424 1473.615234,305.005402 
	C1472.329956,303.731659 1471.826294,301.669220 1470.958984,299.973633 
	C1470.958984,299.973633 1470.995117,300.000305 1471.212158,299.891113 
	C1471.718750,299.585510 1471.897095,299.315613 1471.964233,298.972229 
	C1471.964233,298.972229 1472.000000,298.998779 1472.214966,298.891357 
	C1472.718262,298.589569 1472.895874,298.321747 1472.962891,297.980469 
	C1472.962891,297.980469 1472.994629,297.993042 1473.201172,297.918518 
	C1473.680542,297.701416 1473.880859,297.490082 1474.008545,297.209961 
	C1476.450439,294.873871 1478.892334,292.537842 1481.664307,290.468384 
	C1482.916748,292.577026 1483.439209,294.822632 1484.825684,296.196289 
	C1494.513184,305.794678 1504.383301,315.208832 1514.187500,324.689697 
	C1524.590454,334.749542 1534.955322,344.849396 1545.428223,354.835846 
	C1546.523315,355.879974 1548.237671,356.274719 1549.664795,356.970795 
z"/>
<path fill="#047DC3" opacity="1.000000" stroke="none" 
	d="
M1488.415527,442.910309 
	C1486.124146,441.576233 1483.927124,440.326721 1482.182251,438.615997 
	C1460.105103,416.970215 1438.107910,395.242889 1416.045166,373.582397 
	C1413.331665,370.918335 1410.261108,368.617950 1407.548584,365.953003 
	C1406.441895,364.865753 1405.848267,363.256317 1405.021973,361.530518 
	C1407.793945,358.504852 1410.565186,355.833038 1413.780029,353.344666 
	C1416.699219,356.402130 1418.991577,359.461090 1421.678833,362.121246 
	C1444.800293,385.009583 1467.956055,407.863556 1491.238281,430.587830 
	C1492.981079,432.288757 1495.779297,432.908325 1498.086792,434.030640 
	C1494.964600,436.947296 1491.842285,439.863922 1488.415527,442.910309 
z"/>
<path fill="#0F4985" opacity="1.000000" stroke="none" 
	d="
M1470.645508,300.088867 
	C1471.826294,301.669220 1472.329956,303.731659 1473.615234,305.005402 
	C1493.195679,324.409424 1512.812256,343.778137 1532.593628,362.976624 
	C1536.433350,366.703003 1541.007935,369.672089 1545.605713,372.993225 
	C1544.185303,377.561737 1542.402466,382.127472 1540.148682,386.613525 
	C1535.910034,383.314117 1531.946167,380.295105 1528.410889,376.837646 
	C1517.133423,365.808044 1506.023926,354.606903 1494.833130,343.488525 
	C1483.553101,332.281403 1472.253174,321.094086 1460.961914,309.898132 
	C1464.085327,306.666809 1467.208740,303.435455 1470.645508,300.088867 
z"/>
<path fill="#13346D" opacity="1.000000" stroke="none" 
	d="
M1549.773438,356.514618 
	C1548.237671,356.274719 1546.523315,355.879974 1545.428223,354.835846 
	C1534.955322,344.849396 1524.590454,334.749542 1514.187500,324.689697 
	C1504.383301,315.208832 1494.513184,305.794678 1484.825684,296.196289 
	C1483.439209,294.822632 1482.916748,292.577026 1481.977295,290.351776 
	C1481.960327,289.968536 1481.991943,289.995697 1482.210449,289.890076 
	C1482.720703,289.587067 1482.900146,289.315369 1482.967163,288.969421 
	C1482.967163,288.969421 1483.000000,289.000000 1483.215576,288.892639 
	C1483.722168,288.588684 1483.900757,288.317932 1483.966675,287.972992 
	C1483.966675,287.972992 1484.000000,287.998779 1484.216797,287.892365 
	C1484.723633,287.589966 1484.901245,287.320007 1484.966187,286.976044 
	C1484.966187,286.976044 1485.000000,286.998566 1485.217773,286.892517 
	C1485.724854,286.591064 1485.901489,286.321747 1485.965576,285.978485 
	C1485.965576,285.978485 1485.995117,285.996399 1486.217041,285.890289 
	C1486.728271,285.586700 1486.904175,285.315552 1486.966675,284.970734 
	C1486.966675,284.970734 1487.000000,284.998779 1487.201172,284.921387 
	C1487.677490,284.698517 1487.880493,284.484680 1488.011597,284.202454 
	C1489.464966,282.859253 1490.918213,281.516083 1492.718384,280.403625 
	C1493.356201,281.219635 1493.516724,281.937561 1493.957153,282.370911 
	C1511.829590,299.955231 1529.721680,317.519623 1547.649048,335.047852 
	C1548.184204,335.571228 1549.123779,335.680969 1549.874756,335.983582 
	C1549.877319,342.675201 1549.879883,349.366821 1549.773438,356.514618 
z"/>
<path fill="#0A60A2" opacity="1.000000" stroke="none" 
	d="
M1444.641235,324.062988 
	C1446.798340,326.956482 1448.146118,330.467987 1450.573486,332.903778 
	C1462.310303,344.681763 1474.339233,356.168549 1486.261230,367.762238 
	C1498.541260,379.704193 1510.796265,391.672180 1523.130737,403.557495 
	C1524.250610,404.636719 1525.870972,405.196686 1527.621094,406.024689 
	C1525.559204,408.292572 1523.135254,410.533539 1520.034058,412.889954 
	C1517.961304,412.226685 1516.318359,411.703918 1515.207642,410.630402 
	C1501.717773,397.592133 1488.291138,384.488281 1474.880859,371.367737 
	C1468.466187,365.091461 1462.125732,358.739441 1455.743652,352.429688 
	C1449.152222,345.912903 1442.551147,339.405792 1435.954346,332.894409 
	C1438.745972,329.991302 1441.537720,327.088257 1444.641235,324.062988 
z"/>
<path fill="#0869AC" opacity="1.000000" stroke="none" 
	d="
M1435.642944,333.030762 
	C1442.551147,339.405792 1449.152222,345.912903 1455.743652,352.429688 
	C1462.125732,358.739441 1468.466187,365.091461 1474.880859,371.367737 
	C1488.291138,384.488281 1501.717773,397.592133 1515.207642,410.630402 
	C1516.318359,411.703918 1517.961304,412.226685 1519.728882,413.018829 
	C1517.330322,415.679565 1514.559814,418.326874 1511.136963,420.866150 
	C1504.193237,414.874542 1497.789307,409.105988 1491.630859,403.086243 
	C1471.809448,383.711243 1452.048950,364.273499 1432.369873,344.754242 
	C1430.818359,343.215454 1430.075073,340.861847 1428.956299,338.886932 
	C1431.081299,336.980316 1433.206421,335.073700 1435.642944,333.030762 
z"/>
<path fill="#0673B8" opacity="1.000000" stroke="none" 
	d="
M1507.119507,424.040741 
	C1505.316650,426.286346 1503.513794,428.531952 1501.082886,430.772125 
	C1497.662354,428.703217 1494.603638,426.916565 1492.121460,424.530212 
	C1478.572510,411.504578 1465.118530,398.379028 1451.724976,385.193237 
	C1441.637329,375.262146 1431.630249,365.247009 1421.738159,355.121979 
	C1420.083984,353.428955 1419.198730,350.984863 1417.958252,348.887878 
	C1420.087158,346.976196 1422.216187,345.064484 1424.666992,343.389954 
	C1426.118896,345.377747 1426.973877,347.406555 1428.420532,348.836792 
	C1446.499023,366.710114 1464.635620,384.524933 1482.819580,402.291016 
	C1489.702759,409.015900 1496.720581,415.603912 1503.746948,422.179688 
	C1504.655640,423.030212 1505.984985,423.431427 1507.119507,424.040741 
z"/>
<path fill="#0D518F" opacity="1.000000" stroke="none" 
	d="
M1460.619141,309.944641 
	C1472.253174,321.094086 1483.553101,332.281403 1494.833130,343.488525 
	C1506.023926,354.606903 1517.133423,365.808044 1528.410889,376.837646 
	C1531.946167,380.295105 1535.910034,383.314117 1539.866699,386.819092 
	C1538.619019,389.654114 1537.182251,392.203888 1535.448486,394.908752 
	C1533.776733,394.219238 1532.181763,393.599030 1531.060181,392.496979 
	C1507.076782,368.933563 1483.124023,345.338898 1459.254761,321.660187 
	C1457.560059,319.979065 1456.555298,317.602386 1455.089844,315.219360 
	C1456.725342,313.256805 1458.500732,311.623993 1460.619141,309.944641 
z"/>
<path fill="#0B5C9C" opacity="1.000000" stroke="none" 
	d="
M1316.966064,220.114929 
	C1314.050659,217.651840 1311.135254,215.188736 1308.132812,212.059052 
	C1309.066772,209.725815 1309.830200,207.813171 1311.149536,206.431519 
	C1321.311157,195.790741 1331.606934,185.278122 1341.801392,174.668350 
	C1344.998657,171.340836 1347.862793,167.684021 1351.157593,164.462372 
	C1353.932129,161.749496 1357.110107,159.449188 1360.109497,156.966202 
	C1363.066528,159.735306 1366.023682,162.504395 1368.692627,165.658829 
	C1367.222412,166.909760 1365.892700,167.630554 1364.880371,168.662689 
	C1351.182739,182.628830 1337.464722,196.576324 1323.919800,210.689682 
	C1321.238892,213.483124 1319.265625,216.955597 1316.966064,220.114929 
z"/>
<path fill="#162A60" opacity="1.000000" stroke="none" 
	d="
M1549.943604,335.552490 
	C1549.123779,335.680969 1548.184204,335.571228 1547.649048,335.047852 
	C1529.721680,317.519623 1511.829590,299.955231 1493.957153,282.370911 
	C1493.516724,281.937561 1493.356201,281.219635 1493.027344,280.285645 
	C1493.006714,279.575378 1493.169678,279.300140 1493.950195,278.952087 
	C1494.603516,278.521820 1494.785278,278.250610 1494.966919,277.979431 
	C1494.966919,277.979431 1494.995605,277.996338 1495.216431,277.892700 
	C1495.725952,277.595306 1495.902100,277.327515 1495.965820,276.985718 
	C1495.965820,276.985718 1495.993042,276.992950 1496.217163,276.891418 
	C1496.728516,276.597076 1496.903076,276.330475 1496.964966,275.990173 
	C1496.964966,275.990173 1496.989990,275.989807 1497.217041,275.890015 
	C1497.729980,275.597900 1497.903442,275.332153 1497.964233,274.992920 
	C1497.964233,274.992920 1497.986694,274.986725 1498.216187,274.888733 
	C1498.731201,274.599121 1498.903809,274.334015 1498.963745,273.995453 
	C1498.963745,273.995453 1498.984375,273.984802 1499.215698,273.888123 
	C1499.731934,273.600464 1499.904053,273.336060 1499.963257,272.998199 
	C1499.963257,272.998199 1499.982178,272.982239 1500.218506,272.882507 
	C1500.740967,272.584106 1500.911865,272.312866 1500.967651,271.968994 
	C1500.967651,271.968994 1501.000000,272.000000 1501.322510,272.000122 
	C1502.097290,272.001282 1502.549561,272.002350 1503.035645,272.347839 
	C1503.176147,273.003479 1503.192749,273.406586 1503.402710,273.612854 
	C1516.391846,286.374023 1529.374878,299.141846 1542.453369,311.811096 
	C1543.269409,312.601593 1544.844971,312.608154 1546.067139,312.979431 
	C1547.382202,320.360077 1548.697266,327.740723 1549.943604,335.552490 
z"/>
<path fill="#0D518F" opacity="1.000000" stroke="none" 
	d="
M1317.091309,220.420761 
	C1319.265625,216.955597 1321.238892,213.483124 1323.919800,210.689682 
	C1337.464722,196.576324 1351.182739,182.628830 1364.880371,168.662689 
	C1365.892700,167.630554 1367.222412,166.909760 1368.756104,166.003433 
	C1370.017212,166.757782 1370.927002,167.552902 1371.963623,168.628479 
	C1373.126221,171.319489 1374.161865,173.730072 1374.842041,176.549042 
	C1372.849487,177.946320 1370.925171,178.652771 1369.626221,179.973953 
	C1364.536865,185.150650 1359.688354,190.563049 1354.669800,195.810715 
	C1345.876587,205.005219 1336.952881,214.076569 1328.272949,223.376160 
	C1326.975586,224.766174 1326.706055,227.115387 1325.960938,229.020844 
	C1323.046143,226.256104 1320.131348,223.491348 1317.091309,220.420761 
z"/>
<path fill="#182256" opacity="1.000000" stroke="none" 
	d="
M1546.058960,312.580292 
	C1544.844971,312.608154 1543.269409,312.601593 1542.453369,311.811096 
	C1529.374878,299.141846 1516.391846,286.374023 1503.402710,273.612854 
	C1503.192749,273.406586 1503.176147,273.003479 1503.035645,272.076874 
	C1502.993896,271.281097 1502.985596,271.100708 1502.977539,270.920380 
	C1506.572144,267.244751 1510.166870,263.569092 1513.949707,259.649536 
	C1515.380859,260.055237 1516.902954,260.436340 1517.825439,261.394653 
	C1531.713257,275.820679 1541.034302,292.811249 1546.058960,312.580292 
z"/>
<path fill="#0869AC" opacity="1.000000" stroke="none" 
	d="
M1359.976074,156.654816 
	C1357.110107,159.449188 1353.932129,161.749496 1351.157593,164.462372 
	C1347.862793,167.684021 1344.998657,171.340836 1341.801392,174.668350 
	C1331.606934,185.278122 1321.311157,195.790741 1311.149536,206.431519 
	C1309.830200,207.813171 1309.066772,209.725815 1308.003906,211.752106 
	C1305.520996,209.782837 1303.080200,207.453918 1300.334351,204.613586 
	C1303.967285,199.287674 1307.626831,194.209045 1311.896362,189.709396 
	C1323.677979,177.293076 1335.690552,165.095169 1347.687256,152.885025 
	C1348.900513,151.650085 1350.626221,150.918655 1352.114136,149.953552 
	C1354.690308,152.083511 1357.266357,154.213470 1359.976074,156.654816 
z"/>
<path fill="#0673B8" opacity="1.000000" stroke="none" 
	d="
M1352.060303,149.605804 
	C1350.626221,150.918655 1348.900513,151.650085 1347.687256,152.885025 
	C1335.690552,165.095169 1323.677979,177.293076 1311.896362,189.709396 
	C1307.626831,194.209045 1303.967285,199.287674 1300.034912,204.454895 
	C1297.764771,202.778397 1295.489380,200.749161 1293.100830,198.037201 
	C1295.257446,193.804352 1297.096680,189.864502 1299.885376,186.784332 
	C1305.880249,180.162903 1312.358765,173.978638 1318.649780,167.625931 
	C1327.130127,159.062485 1335.620483,150.508942 1344.106567,141.951172 
	C1346.739868,144.386795 1349.373169,146.822433 1352.060303,149.605804 
z"/>
<path fill="#0287CE" opacity="1.000000" stroke="none" 
	d="
M1277.085815,183.415070 
	C1287.340210,172.203476 1297.773804,161.340012 1308.081299,150.358185 
	C1310.888062,147.367935 1313.314941,144.021240 1315.959229,140.502335 
	C1321.027710,140.118042 1326.053101,140.069519 1331.497314,140.428650 
	C1329.428467,143.906097 1327.144409,147.171402 1324.417847,150.011887 
	C1312.582031,162.342117 1300.583008,174.515503 1288.749634,186.847916 
	C1287.484619,188.166275 1286.912476,190.149567 1286.018799,191.824387 
	C1283.085083,189.122467 1280.151367,186.420578 1277.085815,183.415070 
z"/>
<path fill="#104580" opacity="1.000000" stroke="none" 
	d="
M1325.976562,229.013123 
	C1326.706055,227.115387 1326.975586,224.766174 1328.272949,223.376160 
	C1336.952881,214.076569 1345.876587,205.005219 1354.669800,195.810715 
	C1359.688354,190.563049 1364.536865,185.150650 1369.626221,179.973953 
	C1370.925171,178.652771 1372.849487,177.946320 1374.875977,176.916367 
	C1376.540405,179.656113 1377.815308,182.436920 1378.746582,185.634552 
	C1375.178345,189.290970 1371.922241,192.499893 1368.734741,195.775711 
	C1357.765259,207.049698 1346.775757,218.305267 1335.919922,229.688080 
	C1334.555786,231.118423 1333.944092,233.266388 1332.983887,235.081848 
	C1331.524414,233.745605 1330.064941,232.409332 1328.202515,230.732254 
	C1327.600708,230.166489 1327.351196,230.052338 1327.050903,230.048996 
	C1327.050903,230.048996 1326.965332,230.046570 1326.870850,229.782837 
	C1326.580200,229.243866 1326.314819,229.082321 1325.980225,229.034470 
	C1325.980225,229.034470 1325.992065,229.005371 1325.976562,229.013123 
z"/>
<path fill="#076FB2" opacity="1.000000" stroke="none" 
	d="
M1507.419678,423.917114 
	C1505.984985,423.431427 1504.655640,423.030212 1503.746948,422.179688 
	C1496.720581,415.603912 1489.702759,409.015900 1482.819580,402.291016 
	C1464.635620,384.524933 1446.499023,366.710114 1428.420532,348.836792 
	C1426.973877,347.406555 1426.118896,345.377747 1424.974976,343.254089 
	C1426.095459,341.632019 1427.229736,340.382965 1428.660156,339.010376 
	C1430.075073,340.861847 1430.818359,343.215454 1432.369873,344.754242 
	C1452.048950,364.273499 1471.809448,383.711243 1491.630859,403.086243 
	C1497.789307,409.105988 1504.193237,414.874542 1510.792969,420.901306 
	C1509.974121,421.960846 1508.846924,422.877167 1507.419678,423.917114 
z"/>
<path fill="#123C76" opacity="1.000000" stroke="none" 
	d="
M1333.107788,235.386444 
	C1333.944092,233.266388 1334.555786,231.118423 1335.919922,229.688080 
	C1346.775757,218.305267 1357.765259,207.049698 1368.734741,195.775711 
	C1371.922241,192.499893 1375.178345,189.290970 1378.759277,186.014832 
	C1379.734497,189.705399 1380.353149,193.432495 1380.578491,197.622711 
	C1379.614746,198.406982 1378.929688,198.616180 1378.490723,199.065643 
	C1366.428101,211.417160 1354.335938,223.741302 1342.423462,236.236557 
	C1341.072388,237.653732 1340.754517,240.056015 1339.957520,242.001465 
	C1337.715576,239.897980 1335.473633,237.794525 1333.107788,235.386444 
z"/>
<path fill="#047DC3" opacity="1.000000" stroke="none" 
	d="
M1286.321777,191.973602 
	C1286.912476,190.149567 1287.484619,188.166275 1288.749634,186.847916 
	C1300.583008,174.515503 1312.582031,162.342117 1324.417847,150.011887 
	C1327.144409,147.171402 1329.428467,143.906097 1331.959229,140.501511 
	C1335.914062,140.519897 1339.825928,140.873062 1343.922119,141.588699 
	C1335.620483,150.508942 1327.130127,159.062485 1318.649780,167.625931 
	C1312.358765,173.978638 1305.880249,180.162903 1299.885376,186.784332 
	C1297.096680,189.864502 1295.257446,193.804352 1292.971191,197.734283 
	C1290.844727,196.116974 1288.734619,194.119873 1286.321777,191.973602 
z"/>
<path fill="#0579BE" opacity="1.000000" stroke="none" 
	d="
M1417.662231,349.012756 
	C1419.198730,350.984863 1420.083984,353.428955 1421.738159,355.121979 
	C1431.630249,365.247009 1441.637329,375.262146 1451.724976,385.193237 
	C1465.118530,398.379028 1478.572510,411.504578 1492.121460,424.530212 
	C1494.603638,426.916565 1497.662354,428.703217 1500.775024,430.903687 
	C1500.284790,431.961700 1499.474365,432.882751 1498.375366,433.917206 
	C1495.779297,432.908325 1492.981079,432.288757 1491.238281,430.587830 
	C1467.956055,407.863556 1444.800293,385.009583 1421.678833,362.121246 
	C1418.991577,359.461090 1416.699219,356.402130 1414.088623,353.209442 
	C1415.090942,351.639740 1416.228516,350.388702 1417.662231,349.012756 
z"/>
<path fill="#162A60" opacity="1.000000" stroke="none" 
	d="
M1380.835571,208.021469 
	C1380.245850,213.091537 1379.656128,218.161591 1378.578857,223.625793 
	C1377.200439,224.383926 1376.069214,224.514786 1375.455078,225.147507 
	C1367.975708,232.852997 1360.508667,240.573608 1353.226196,248.463654 
	C1352.274658,249.494629 1352.372192,251.494095 1351.983887,253.044998 
	C1349.736694,250.926270 1347.489624,248.807556 1345.145508,246.036102 
	C1345.451660,244.676392 1345.735718,243.858551 1346.275635,243.278976 
	C1356.085327,232.749420 1365.891968,222.216675 1375.796997,211.777161 
	C1377.217651,210.279739 1379.143555,209.261490 1380.835571,208.021469 
z"/>
<path fill="#13346D" opacity="1.000000" stroke="none" 
	d="
M1380.904541,207.632126 
	C1379.143555,209.261490 1377.217651,210.279739 1375.796997,211.777161 
	C1365.891968,222.216675 1356.085327,232.749420 1346.275635,243.278976 
	C1345.735718,243.858551 1345.451660,244.676392 1345.011475,245.734894 
	C1343.845215,245.078659 1342.715942,244.070923 1341.173096,242.741150 
	C1340.555908,242.198441 1340.304565,242.073685 1340.005615,242.044876 
	C1340.005615,242.044876 1339.981201,242.025085 1339.969360,242.013275 
	C1340.754517,240.056015 1341.072388,237.653732 1342.423462,236.236557 
	C1354.335938,223.741302 1366.428101,211.417160 1378.490723,199.065643 
	C1378.929688,198.616180 1379.614746,198.406982 1380.517212,198.049744 
	C1380.890747,201.090042 1380.932007,204.166412 1380.904541,207.632126 
z"/>
<path fill="#182256" opacity="1.000000" stroke="none" 
	d="
M1352.093750,253.365082 
	C1352.372192,251.494095 1352.274658,249.494629 1353.226196,248.463654 
	C1360.508667,240.573608 1367.975708,232.852997 1375.455078,225.147507 
	C1376.069214,224.514786 1377.200439,224.383926 1378.440186,224.017181 
	C1374.592285,237.017685 1369.607544,249.563873 1358.368408,258.735229 
	C1356.101807,257.098175 1354.152710,255.391663 1352.093750,253.365082 
z"/>
<path fill="#13346D" opacity="1.000000" stroke="none" 
	d="
M1502.661499,270.964630 
	C1502.985596,271.100708 1502.993896,271.281097 1503.001953,271.732483 
	C1502.549561,272.002350 1502.097290,272.001282 1501.306152,271.984924 
	C1501.426758,271.649414 1501.886230,271.329163 1502.661499,270.964630 
z"/>
<path fill="#0A60A2" opacity="1.000000" stroke="none" 
	d="
M1529.290405,404.965881 
	C1529.077881,404.726044 1529.207642,404.466309 1529.616211,404.131042 
	C1529.713501,404.305328 1529.626099,404.602173 1529.290405,404.965881 
z"/>
<path fill="#0A60A2" opacity="1.000000" stroke="none" 
	d="
M1445.736572,323.150146 
	C1445.861572,323.473969 1445.654053,323.689636 1445.153442,323.897278 
	C1445.115845,323.678436 1445.297119,323.395996 1445.736572,323.150146 
z"/>
<path fill="#0F4985" opacity="1.000000" stroke="none" 
	d="
M1471.714355,299.036560 
	C1471.897095,299.315613 1471.718750,299.585510 1471.198975,299.873535 
	C1471.134033,299.677063 1471.299194,299.388977 1471.714355,299.036560 
z"/>
<path fill="#0F4985" opacity="1.000000" stroke="none" 
	d="
M1472.713135,298.041687 
	C1472.895874,298.321747 1472.718262,298.589569 1472.200928,298.874268 
	C1472.135864,298.677368 1472.299683,298.390137 1472.713135,298.041687 
z"/>
<path fill="#0A60A2" opacity="1.000000" stroke="none" 
	d="
M1528.298706,405.938110 
	C1528.120728,405.658081 1528.297852,405.398285 1528.808838,405.126251 
	C1528.870972,405.321320 1528.708008,405.602753 1528.298706,405.938110 
z"/>
<path fill="#13346D" opacity="1.000000" stroke="none" 
	d="
M1495.716919,277.046783 
	C1495.902100,277.327515 1495.725952,277.595306 1495.208252,277.878021 
	C1495.142212,277.680634 1495.305054,277.394257 1495.716919,277.046783 
z"/>
<path fill="#0D518F" opacity="1.000000" stroke="none" 
	d="
M1326.042114,229.277191 
	C1326.314819,229.082321 1326.580200,229.243866 1326.862915,229.740753 
	C1326.667725,229.814911 1326.385864,229.667404 1326.042114,229.277191 
z"/>
<path fill="#0D518F" opacity="1.000000" stroke="none" 
	d="
M1327.109863,230.283142 
	C1327.351196,230.052338 1327.600708,230.166489 1327.908936,230.572662 
	C1328.018188,230.753891 1327.539917,230.827652 1327.539917,230.827652 
	C1327.539917,230.827652 1327.168945,230.517288 1327.109863,230.283142 
z"/>
<path fill="#123C76" opacity="1.000000" stroke="none" 
	d="
M1340.062988,242.290649 
	C1340.304565,242.073685 1340.555908,242.198441 1340.875977,242.599655 
	C1340.701660,242.698944 1340.411011,242.617691 1340.062988,242.290649 
z"/>
<path fill="#13346D" opacity="1.000000" stroke="none" 
	d="
M1500.720459,272.035889 
	C1500.911865,272.312866 1500.740967,272.584106 1500.226318,272.873108 
	C1500.156372,272.676575 1500.314941,272.389679 1500.720459,272.035889 
z"/>
<path fill="#13346D" opacity="1.000000" stroke="none" 
	d="
M1499.715576,273.054016 
	C1499.904053,273.336060 1499.731934,273.600464 1499.221191,273.877686 
	C1499.152832,273.679260 1499.310303,273.394562 1499.715576,273.054016 
z"/>
<path fill="#13346D" opacity="1.000000" stroke="none" 
	d="
M1498.716064,274.052643 
	C1498.903809,274.334015 1498.731201,274.599121 1498.219238,274.877625 
	C1498.151245,274.679596 1498.309814,274.394714 1498.716064,274.052643 
z"/>
<path fill="#13346D" opacity="1.000000" stroke="none" 
	d="
M1497.716309,275.051300 
	C1497.903442,275.332153 1497.729980,275.597900 1497.216919,275.877625 
	C1497.149414,275.679962 1497.308960,275.394806 1497.716309,275.051300 
z"/>
<path fill="#13346D" opacity="1.000000" stroke="none" 
	d="
M1496.716675,276.049622 
	C1496.903076,276.330475 1496.728516,276.597076 1496.213379,276.877930 
	C1496.146484,276.680359 1496.307373,276.394745 1496.716675,276.049622 
z"/>
<path fill="#0F4985" opacity="1.000000" stroke="none" 
	d="
M1473.753906,297.164276 
	C1473.880859,297.490082 1473.680542,297.701416 1473.194580,297.902893 
	C1473.154053,297.680695 1473.326660,297.399628 1473.753906,297.164276 
z"/>
<path fill="#13346D" opacity="1.000000" stroke="none" 
	d="
M1494.715942,278.043640 
	C1494.785278,278.250610 1494.603516,278.521820 1494.188477,278.882446 
	C1494.125122,278.683868 1494.295044,278.395844 1494.715942,278.043640 
z"/>
<path fill="#113F7A" opacity="1.000000" stroke="none" 
	d="
M1487.752441,284.152832 
	C1487.880493,284.484680 1487.677490,284.698517 1487.186768,284.904663 
	C1487.145264,284.677979 1487.319336,284.390564 1487.752441,284.152832 
z"/>
<path fill="#113F7A" opacity="1.000000" stroke="none" 
	d="
M1486.717041,285.035645 
	C1486.904175,285.315552 1486.728271,285.586700 1486.208496,285.875061 
	C1486.141235,285.677521 1486.304321,285.389038 1486.717041,285.035645 
z"/>
<path fill="#113F7A" opacity="1.000000" stroke="none" 
	d="
M1485.715576,286.040375 
	C1485.901489,286.321747 1485.724854,286.591064 1485.205566,286.876434 
	C1485.138916,286.678345 1485.302124,286.390320 1485.715576,286.040375 
z"/>
<path fill="#113F7A" opacity="1.000000" stroke="none" 
	d="
M1484.715820,287.038818 
	C1484.901245,287.320007 1484.723633,287.589966 1484.203125,287.876465 
	C1484.136963,287.678528 1484.301147,287.390076 1484.715820,287.038818 
z"/>
<path fill="#113F7A" opacity="1.000000" stroke="none" 
	d="
M1483.715820,288.036835 
	C1483.900757,288.317932 1483.722168,288.588684 1483.199951,288.876343 
	C1483.134277,288.678528 1483.299683,288.389618 1483.715820,288.036835 
z"/>
<path fill="#113F7A" opacity="1.000000" stroke="none" 
	d="
M1482.716064,289.034668 
	C1482.900146,289.315369 1482.720703,289.587067 1482.196899,289.876190 
	C1482.131714,289.678558 1482.298462,289.389221 1482.716064,289.034668 
z"/>
<path fill="#FFFFFF" opacity="1.000000" stroke="none" 
	d="
M1478.237305,170.737473 
	C1469.090332,162.343582 1460.193970,154.203430 1450.602539,145.427231 
	C1452.686401,145.228134 1453.882080,145.016541 1455.078003,145.014481 
	C1468.722168,144.991058 1482.397705,145.554230 1495.998047,144.782639 
	C1503.628662,144.349731 1508.750366,147.436905 1513.754395,152.216995 
	C1525.002686,162.961945 1536.288086,173.669830 1547.676025,184.266327 
	C1556.597412,192.567673 1565.695679,200.678894 1574.363159,209.985474 
	C1571.985596,209.985474 1569.608154,209.984741 1567.230591,209.985596 
	C1554.252075,209.990295 1541.255371,209.594940 1528.303101,210.180649 
	C1522.417725,210.446762 1518.173950,208.407196 1514.254272,204.727997 
	C1502.304565,193.511780 1490.406128,182.240875 1478.237305,170.737473 
z"/>
</svg>
